<?xml version="1.0" encoding="utf-8"?>
<svg version="1.1" xmlns="http://www.w3.org/2000/svg" width="1024" height="1024" viewBox="0 0 1024 1024" xmlns:bx="https://boxy-svg.com">
  <defs>
    <linearGradient id="color-2" bx:pinned="true" gradientUnits="userSpaceOnUse" gradientTransform="matrix(2.718919, 0, 0, -2.718919, -3236.53418, 1334.931865)">
      <title>White</title>
      <stop style="stop-color: rgb(255, 255, 255);"/>
    </linearGradient>
    <linearGradient id="color-1" bx:pinned="true" gradientUnits="userSpaceOnUse" gradientTransform="matrix(1, 0, 0, 1, -0.044006, 0)">
      <title>Swift</title>
      <stop style="stop-color: rgb(250, 115, 67);"/>
    </linearGradient>
    <linearGradient id="color-0" bx:pinned="true" gradientUnits="userSpaceOnUse">
      <title>HTML</title>
      <stop style="stop-color: rgb(239, 71, 111);"/>
    </linearGradient>
    <linearGradient id="color-12" bx:pinned="true" gradientUnits="userSpaceOnUse" gradientTransform="matrix(1, 0, 0, 1, 3.973022, -179.98642)">
      <title>SQL</title>
      <stop style="stop-color: rgb(38, 84, 124);"/>
    </linearGradient>
    <bx:export>
      <bx:file format="png" href="#object-3" path="icon.png" width="256" height="256"/>
      <bx:file format="png" href="#object-4" path="icon.png" width="256" height="256" excluded="true"/>
    </bx:export>
  </defs>
  <g id="object-3" style="">
    <title>sql</title>
    <rect style="fill: url(&quot;#color-12&quot;);" x="0" y="0" width="1024" height="1024" rx="210" ry="210" id="object-0">
      <title>bg-sql</title>
    </rect>
    <g transform="matrix(0.73333, 0, 0, 0.73333, -286.573273, -201.163818)" style="">
      <title>icon</title>
      <path d="M 1338.39 805.973 C 1276.37 836.957 1188.25 857.16 1088.97 857.16 C 989.686 857.16 901.514 836.957 839.498 805.973 C 815.357 796.504 761.123 766.457 723.389 717.895 C 716.967 709.645 714.201 699.145 715.795 688.785 C 716.873 681.848 718.373 674.676 720.295 670.223 C 752.779 583.223 905.451 517.317 1088.97 517.317 C 1272.44 517.317 1425.11 583.223 1457.59 670.223 C 1459.51 674.676 1461.01 681.848 1462.09 688.785 C 1463.69 699.145 1460.92 709.645 1454.5 717.895 C 1416.76 766.457 1362.53 796.504 1338.39 805.973 Z" style="fill: url(&quot;#color-2&quot;);"/>
      <path d="M 1088.97 913.836 C 1196.78 913.836 1296.15 892.039 1369.84 855.195 C 1407.01 836.633 1440.39 812.633 1463.97 783.711 L 1463.97 972.43 C 1463.97 995.867 1380.25 1047.01 1338.39 1073.59 C 1276.37 1104.57 1188.25 1124.77 1088.97 1124.77 C 989.686 1124.77 901.514 1104.57 839.498 1073.59 C 784.279 1045.93 713.967 995.867 713.967 972.43 L 713.967 783.711 C 737.498 812.633 770.873 836.633 808.045 855.195 C 881.779 892.039 981.107 913.836 1088.97 913.836 Z" style="fill: url(&quot;#color-2&quot;);"/>
      <path d="M 1463.97 1240.18 C 1463.97 1343.72 1296.06 1427.68 1088.97 1427.68 C 881.826 1427.68 713.967 1343.72 713.967 1240.18 L 713.967 1051.45 C 737.498 1080.38 770.873 1104.38 808.045 1122.94 C 881.779 1159.79 981.107 1181.6 1088.97 1181.6 C 1196.78 1181.6 1296.15 1159.79 1369.84 1122.94 C 1407.01 1104.38 1440.39 1080.38 1463.97 1051.45 L 1463.97 1240.18 Z" style="fill: url(&quot;#color-2&quot;);"/>
    </g>
  </g>
  <g style="" id="object-4">
    <title>html</title>
    <rect style="fill: url(&quot;#color-0&quot;);" width="1024" height="1024" rx="210" ry="210" id="rect-1">
      <title>bg-html</title>
    </rect>
    <g transform="matrix(1.263858, 0, 0, 1.263858, -358.207916, -215.260773)" style="">
      <title>icon-slightly-below-center</title>
      <path d="M 504.033 788.566 L 463.033 328.566 L 914.033 328.566 L 873.033 788.566 L 688.033 840.566" style="fill: url(&quot;#color-2&quot;);">
        <title>shield</title>
      </path>
      <path d="M 689.033 536.566 L 614.033 536.566 L 609.033 478.566 L 689.033 478.566 L 689.033 422.566 L 688.033 422.566 L 547.033 422.566 L 548.033 437.566 L 562.033 593.566 L 689.033 593.566 L 689.033 536.566 Z M 689.033 683.566 L 688.033 683.566 L 625.033 666.566 L 621.033 621.566 L 591.033 621.566 L 565.033 621.566 L 572.033 710.566 L 688.033 742.566 L 689.033 742.566 L 689.033 683.566 Z" style="fill: url(&quot;#color-0&quot;);">
        <title>left</title>
      </path>
      <path d="M 688.033 536.566 L 688.033 593.566 L 758.033 593.566 L 751.033 666.566 L 688.033 683.566 L 688.033 742.566 L 804.033 710.566 L 805.033 700.566 L 818.033 551.566 L 820.033 536.566 L 804.033 536.566 L 688.033 536.566 Z M 688.033 422.566 L 688.033 457.566 L 688.033 478.566 L 825.033 478.566 L 826.033 466.566 L 829.033 437.566 L 830.033 422.566 L 688.033 422.566 Z" style="fill: url(&quot;#color-0&quot;);">
        <title>right</title>
      </path>
    </g>
  </g>
  <path d="M 809.877 635.318 C 811.686 631.702 811.686 628.085 813.494 624.468 C 856.961 454.223 753.72 255.045 576.247 150 C 654.134 255.046 684.907 379.985 657.752 492.264 C 655.943 501.306 652.325 512.188 648.708 521.23 C 642.971 518.044 638.225 515.051 633.646 511.834 L 634.175 512.189 C 634.175 512.189 458.539 403.526 270.244 213.39 C 264.786 207.965 371.641 365.486 491.154 490.456 C 435.03 457.842 275.669 343.785 176.048 251.398 C 186.931 271.322 203.238 291.246 219.513 311.17 C 302.826 418.026 411.489 548.388 541.885 647.978 C 449.53 704.166 320.943 707.75 190.547 647.978 C 157.932 633.51 130.807 615.394 100 593.662 C 154.315 678.784 239.438 756.672 340.867 798.3 C 462.189 850.84 585.321 847.223 674.054 798.3 L 675.9 798.3 C 679.519 796.491 683.129 794.682 686.746 791.063 C 730.212 769.332 815.334 745.79 862.418 836.339 C 875.072 861.686 898.618 743.983 809.877 635.32 L 809.877 635.318 Z" style="fill: url(&quot;#color-2&quot;); visibility: hidden;" id="object-1">
    <title>swift-center</title>
  </path>
  <path d="M 937.94 697.515 C 940.33 692.736 940.33 687.958 942.72 683.179 C 1000.15 458.24 863.74 195.072 629.25 56.278 C 732.16 195.073 772.82 360.15 736.94 508.502 C 734.55 520.449 729.77 534.827 724.99 546.774 C 717.41 542.564 711.14 538.609 705.09 534.359 L 705.79 534.828 C 705.79 534.828 473.73 391.255 224.94 140.033 C 217.73 132.865 358.91 340.993 516.82 506.113 C 442.67 463.02 232.11 312.321 100.48 190.252 C 114.86 216.577 136.4 242.903 157.91 269.228 C 267.99 410.412 411.56 582.657 583.85 714.241 C 461.82 788.481 291.92 793.217 119.64 714.241 C 76.54 695.126 40.7 671.19 0 642.476 C 71.77 754.945 184.23 857.857 318.25 912.855 C 478.55 982.274 641.24 977.495 758.49 912.855 L 760.92 912.855 C 765.7 910.466 770.47 908.076 775.25 903.298 C 832.68 874.583 945.15 843.479 1007.36 963.117 C 1024.09 996.61 1055.19 841.09 937.94 697.517 L 937.94 697.515 Z" style="fill: url(&quot;#color-1&quot;); visibility: hidden;">
    <title>swift-full-canvas</title>
  </path>
  <path class="st0" d="M 785.88 520.069 C 748.335 493.628 498.533 441.738 579.145 629.838 C 584.968 646.966 589.006 672.98 589.006 692.031 C 589.006 787.01 510.8 864.01 414.339 864.01 C 340.569 864.01 277.526 818.943 251.936 755.281 C 201.845 745.282 190.322 765.431 180.364 788.67 C 169.608 813.748 142.14 806.581 137.373 774.329 C 134.021 751.68 153.086 690.326 201.832 671.029 C 188.029 664.464 176.395 655.398 166.026 643.558 C 152.099 627.624 169.913 600.787 189.678 607.573 C 208.33 613.973 237.187 616.363 256.21 616.886 C 264.726 597.683 275.385 581.147 285.466 567.714 C 296.234 553.36 280.604 542.935 247.473 488.888 C 202.094 414.842 194.923 316.912 251.856 245.985 C 319.966 161.117 456.081 159.99 606.548 159.99 C 814.546 159.99 868.318 373.969 882.621 460.951 C 900.96 572.494 860.354 572.494 785.88 520.069 Z M 361.295 693.72 C 345.471 693.72 332.644 706.549 332.644 722.385 C 332.644 738.208 345.472 751.05 361.295 751.05 C 377.131 751.05 389.96 738.208 389.96 722.385 C 389.96 706.549 377.131 693.72 361.295 693.72 Z" style="fill: url(&quot;#color-2&quot;); transform-box: fill-box; transform-origin: 50% 50%; visibility: hidden;" transform="matrix(-1, 0, 0, -1, 0.000025, 0)">
    <title>duck</title>
  </path>
  <path d="M 875.87 366.243 L 803.27 317.845 C 759.6 180.254 583.363 141.533 486.041 248.151 C 454.508 282.693 437.024 327.773 437.015 374.546 L 437.015 428.272 L 142.504 796.411 C 130.483 811.431 139.233 833.841 158.257 836.741 C 159.504 836.931 160.766 837.031 162.026 837.031 L 487.013 837.031 C 666.416 836.821 811.8 691.441 812 512.041 L 812 450.421 L 875.87 407.845 C 890.71 397.948 890.71 376.14 875.87 366.243 Z M 481.22 578.041 L 356.224 728.041 C 343.881 742.801 320.182 738.661 313.57 720.591 C 310.511 712.231 312.129 702.871 317.816 696.031 L 442.812 546.033 C 455.155 531.271 478.851 535.406 485.466 553.477 C 488.526 561.839 486.907 571.195 481.22 578.041 Z M 649.507 387.046 C 620.642 387.046 602.599 355.797 617.033 330.798 C 631.467 305.799 667.55 305.799 681.984 330.798 C 685.274 336.498 687.005 342.963 687.005 349.547 C 687.005 370.256 670.219 387.046 649.507 387.046 Z" style="fill: url(&quot;#color-2&quot;); visibility: hidden;">
    <title>bird</title>
  </path>
  <path d="M 790.071 448.9 C 848.036 524.088 867.903 624.583 868.986 736.09 C 788.504 737.733 591.844 712.559 541.081 625.45 C 506.417 693.027 452.949 750.386 371.963 754.935 C 264.983 760.946 230.023 657.14 150.573 613.24 C 138.803 606.078 132.963 602.057 140.143 597.863 C 208.263 543.536 210.523 444.451 268.325 373.357 C 385.899 228.759 608.59 255.789 727.106 325.129 C 845.353 394.32 887 450.393 887 450.393 C 887 450.393 810.331 437.381 790.071 448.9 Z M 289.395 579.044 C 289.975 579.04 290.659 579.034 291.391 579.031 C 290.572 579.038 289.914 579.042 289.395 579.044 Z M 292.337 579.027 C 292.405 579.027 292.477 579.025 292.549 579.025 C 292.47 579.025 292.412 579.027 292.333 579.027 L 292.329 579.027 C 255.511 579.252 255.707 636.115 292.499 636.205 C 329.633 636.301 329.591 578.807 292.337 579.027 Z" style="fill: url(&quot;#color-2&quot;); transform-box: fill-box; transform-origin: 50% 50%; visibility: hidden;" transform="matrix(-1, 0, 0, -1, 0.000086, -0.000026)">
    <title>dove</title>
  </path>
  <path fill-rule="evenodd" clip-rule="evenodd" d="M 403.667 240.3 L 403.667 187 L 398.788 187 C 381.838 187 365.425 190.359 349.555 197.021 C 333.791 203.629 319.491 213.434 307.575 225.729 C 295.984 237.375 286.938 251.243 280.871 266.518 L 280.871 266.571 C 275.509 281.088 271.934 296.2 270.146 311.529 L 270.146 311.638 C 268.63 327.184 268.196 342.784 268.846 358.384 C 269.496 374.092 269.821 389.8 269.821 405.454 C 269.821 416.45 267.655 426.742 263.484 436.438 L 263.484 436.492 C 255.575 455.45 240.734 470.671 222.046 479.121 C 212.513 483.292 202.221 485.404 191.821 485.35 L 187 485.35 L 187 538.65 L 191.875 538.65 C 202.438 538.65 212.459 540.817 221.991 545.204 L 222.046 545.259 C 231.688 549.483 239.866 555.225 246.691 562.483 L 246.8 562.592 C 253.841 569.633 259.421 578.031 263.43 587.781 L 263.484 587.885 C 267.709 597.635 269.821 607.819 269.821 618.548 C 269.821 634.252 269.496 649.965 268.846 665.617 C 268.196 681.65 268.63 697.302 270.146 712.737 L 270.146 712.798 C 271.934 728.121 275.509 743.019 280.816 757.431 L 280.816 757.483 C 286.559 772.269 295.496 785.867 307.575 798.269 C 319.655 810.731 333.684 820.317 349.555 826.981 C 365.425 833.637 381.838 836.999 398.849 836.999 L 403.667 836.999 L 403.667 783.7 L 398.788 783.7 C 388.015 783.7 377.83 781.637 368.35 777.469 C 359.196 773.187 350.8 767.337 343.596 760.135 C 336.663 752.717 330.975 744.154 326.859 734.837 C 322.85 725.087 320.9 714.8 320.9 703.802 C 320.9 691.452 321.063 679.267 321.496 667.402 C 321.93 655.052 321.93 643.031 321.496 631.383 C 321.334 619.787 320.305 608.2 318.516 596.717 C 316.784 585.398 313.75 574.348 309.416 563.729 C 300.966 543.254 287.155 525.379 269.441 512 C 287.155 498.675 300.966 480.8 309.416 460.271 C 313.75 449.871 316.73 438.984 318.516 427.663 C 320.305 416.288 321.28 404.75 321.496 392.996 C 321.93 381.079 321.93 369.054 321.496 356.921 C 321.063 344.788 320.846 332.546 320.846 320.196 C 320.684 288.454 339.316 259.693 368.35 246.854 C 377.938 242.468 388.336 240.246 398.849 240.3 L 403.667 240.3 Z M 620.334 783.7 L 620.334 836.999 L 625.204 836.999 C 642.165 836.999 658.571 833.637 674.448 826.981 C 690.317 820.317 704.348 810.731 716.421 798.269 C 728.502 785.815 737.438 772.269 743.132 757.483 L 743.132 757.431 C 748.548 743.019 752.067 728.017 753.852 712.469 L 753.852 712.365 C 755.369 697.198 755.802 681.65 755.152 665.617 C 754.502 649.904 754.182 634.2 754.182 618.548 C 754.182 607.55 756.348 597.254 760.517 587.565 L 760.517 587.513 C 768.482 568.602 783.267 553.383 801.952 544.879 C 811.486 540.709 821.565 538.65 832.182 538.65 L 837 538.65 L 837 485.35 L 832.12 485.35 C 821.565 485.35 811.538 483.184 802.004 478.796 L 801.952 478.742 C 792.688 474.734 784.298 468.884 777.304 461.517 L 777.2 461.409 C 770.05 454.204 764.417 445.646 760.569 436.221 L 760.517 436.113 C 756.288 426.471 754.182 416.017 754.182 405.454 C 754.182 389.746 754.502 374.038 755.152 358.384 C 755.854 342.675 755.421 326.913 753.852 311.259 L 753.852 311.204 C 752.119 295.984 748.548 280.979 743.184 266.571 L 743.184 266.518 C 737.169 251.243 728.017 237.375 716.421 225.729 C 704.565 213.434 690.265 203.629 674.448 197.021 C 658.848 190.413 642.104 187 625.152 187 L 620.334 187 L 620.334 240.3 L 625.204 240.3 C 636.038 240.3 646.117 242.359 655.65 246.529 C 665.071 250.971 673.304 256.713 680.402 263.863 C 687.284 271.121 692.865 279.571 697.138 289.159 C 701.15 298.909 703.1 309.2 703.1 320.196 C 703.1 332.546 702.936 344.679 702.502 356.596 C 702.069 368.946 702.069 380.971 702.502 392.617 C 702.719 404.642 703.698 416.179 705.484 427.284 C 707.269 438.875 710.302 449.817 714.584 460.271 C 723.034 480.8 736.848 498.675 754.554 512 C 736.848 525.379 723.034 543.2 714.584 563.729 C 710.302 574.235 707.269 585.181 705.484 596.335 C 703.698 607.715 702.719 619.25 702.502 631.002 C 702.069 642.919 702.069 654.948 702.502 667.081 C 702.936 679.215 703.152 691.452 703.152 703.802 C 703.265 724.767 695.084 744.917 680.402 759.867 C 673.365 767.181 664.967 773.031 655.65 777.148 C 646.117 781.533 635.717 783.804 625.152 783.7 L 620.334 783.7 Z" style="fill: url(&quot;#color-2&quot;); visibility: hidden;">
    <title>symbol-namespace</title>
  </path>
  <path fill-rule="evenodd" clip-rule="evenodd" d="M 640.496 169.001 L 804.495 334 L 812 352 L 812 836.999 L 787 862 L 237.001 862 L 212 836.999 L 212 187.001 L 237.001 162 L 623 162 L 640.496 169.001 Z M 612.001 361.999 L 762.001 361.999 L 612.001 211.999 L 612.001 361.999 Z M 261.999 211.999 L 261.999 811.998 L 762.001 811.998 L 762.001 412 L 587 412 L 562 387 L 562 211.999 L 261.999 211.999 Z M 365.1 588.647 L 455.953 497.25 L 420.496 462 L 312.001 570.952 L 312.001 606.295 L 420.553 715 L 455.896 679.648 L 365.1 588.647 Z M 552.001 497.7 L 587 462.249 L 696.448 571 L 696.448 606.448 L 587 715.096 L 551.752 679.648 L 643.297 588.647 L 552.001 497.7 Z" style="fill: url(&quot;#color-2&quot;); visibility: hidden;">
    <title>file-code</title>
  </path>
</svg>